<mxfile host="app.diagrams.net" agent="Mozilla/5.0 (Windows NT 10.0; Win64; x64) AppleWebKit/537.36 (KHTML, like Gecko) Chrome/132.0.0.0 Safari/537.36" version="24.7.17">
  <diagram id="C5RBs43oDa-KdzZeNtuy" name="Page-1">
    <mxGraphModel dx="2547" dy="1182" grid="1" gridSize="10" guides="1" tooltips="1" connect="1" arrows="1" fold="1" page="1" pageScale="1" pageWidth="827" pageHeight="1169" math="0" shadow="0">
      <root>
        <mxCell id="WIyWlLk6GJQsqaUBKTNV-0" />
        <mxCell id="WIyWlLk6GJQsqaUBKTNV-1" parent="WIyWlLk6GJQsqaUBKTNV-0" />
        <mxCell id="ArthtXB-nmdLfyEw8IKO-8" style="edgeStyle=orthogonalEdgeStyle;rounded=0;orthogonalLoop=1;jettySize=auto;html=1;exitX=0.5;exitY=1;exitDx=0;exitDy=0;entryX=0.5;entryY=0;entryDx=0;entryDy=0;" edge="1" parent="WIyWlLk6GJQsqaUBKTNV-1" source="ArthtXB-nmdLfyEw8IKO-1" target="ArthtXB-nmdLfyEw8IKO-4">
          <mxGeometry relative="1" as="geometry" />
        </mxCell>
        <mxCell id="ArthtXB-nmdLfyEw8IKO-10" style="edgeStyle=orthogonalEdgeStyle;rounded=0;orthogonalLoop=1;jettySize=auto;html=1;exitX=0.5;exitY=1;exitDx=0;exitDy=0;entryX=0.5;entryY=0;entryDx=0;entryDy=0;" edge="1" parent="WIyWlLk6GJQsqaUBKTNV-1" source="ArthtXB-nmdLfyEw8IKO-1" target="ArthtXB-nmdLfyEw8IKO-2">
          <mxGeometry relative="1" as="geometry" />
        </mxCell>
        <mxCell id="ArthtXB-nmdLfyEw8IKO-11" style="edgeStyle=orthogonalEdgeStyle;rounded=0;orthogonalLoop=1;jettySize=auto;html=1;exitX=0.5;exitY=1;exitDx=0;exitDy=0;entryX=0.5;entryY=0;entryDx=0;entryDy=0;" edge="1" parent="WIyWlLk6GJQsqaUBKTNV-1" source="ArthtXB-nmdLfyEw8IKO-1" target="ArthtXB-nmdLfyEw8IKO-6">
          <mxGeometry relative="1" as="geometry" />
        </mxCell>
        <mxCell id="ArthtXB-nmdLfyEw8IKO-12" style="edgeStyle=orthogonalEdgeStyle;rounded=0;orthogonalLoop=1;jettySize=auto;html=1;exitX=0.5;exitY=1;exitDx=0;exitDy=0;entryX=0.5;entryY=0;entryDx=0;entryDy=0;" edge="1" parent="WIyWlLk6GJQsqaUBKTNV-1" source="ArthtXB-nmdLfyEw8IKO-1" target="ArthtXB-nmdLfyEw8IKO-3">
          <mxGeometry relative="1" as="geometry" />
        </mxCell>
        <mxCell id="ArthtXB-nmdLfyEw8IKO-1" value="&lt;span style=&quot;color: rgb(56, 58, 66); font-family: monospace; font-size: 13.6px; text-align: left; white-space: pre; background-color: rgb(243, 243, 243);&quot;&gt;Генеральный директор&lt;/span&gt;" style="rounded=0;whiteSpace=wrap;html=1;" vertex="1" parent="WIyWlLk6GJQsqaUBKTNV-1">
          <mxGeometry x="280" y="10" width="200" height="70" as="geometry" />
        </mxCell>
        <mxCell id="ArthtXB-nmdLfyEw8IKO-2" value="&lt;span style=&quot;color: rgb(56, 58, 66); font-family: monospace; font-size: 13.6px; text-align: left; white-space: pre; background-color: rgb(243, 243, 243);&quot;&gt;Финансовый директор&lt;/span&gt;" style="rounded=0;whiteSpace=wrap;html=1;" vertex="1" parent="WIyWlLk6GJQsqaUBKTNV-1">
          <mxGeometry x="280" y="160" width="200" height="70" as="geometry" />
        </mxCell>
        <mxCell id="ArthtXB-nmdLfyEw8IKO-3" value="&lt;span style=&quot;color: rgb(56, 58, 66); font-family: monospace; font-size: 13.6px; text-align: left; white-space: pre; background-color: rgb(243, 243, 243);&quot;&gt;Директор по персоналу&lt;/span&gt;" style="rounded=0;whiteSpace=wrap;html=1;" vertex="1" parent="WIyWlLk6GJQsqaUBKTNV-1">
          <mxGeometry x="740" y="160" width="200" height="70" as="geometry" />
        </mxCell>
        <mxCell id="ArthtXB-nmdLfyEw8IKO-17" style="edgeStyle=orthogonalEdgeStyle;rounded=0;orthogonalLoop=1;jettySize=auto;html=1;exitX=0.5;exitY=1;exitDx=0;exitDy=0;entryX=0.5;entryY=0;entryDx=0;entryDy=0;" edge="1" parent="WIyWlLk6GJQsqaUBKTNV-1" source="ArthtXB-nmdLfyEw8IKO-4" target="ArthtXB-nmdLfyEw8IKO-14">
          <mxGeometry relative="1" as="geometry" />
        </mxCell>
        <mxCell id="ArthtXB-nmdLfyEw8IKO-18" style="edgeStyle=orthogonalEdgeStyle;rounded=0;orthogonalLoop=1;jettySize=auto;html=1;exitX=0.5;exitY=1;exitDx=0;exitDy=0;entryX=0.5;entryY=0;entryDx=0;entryDy=0;" edge="1" parent="WIyWlLk6GJQsqaUBKTNV-1" source="ArthtXB-nmdLfyEw8IKO-4" target="ArthtXB-nmdLfyEw8IKO-15">
          <mxGeometry relative="1" as="geometry" />
        </mxCell>
        <mxCell id="ArthtXB-nmdLfyEw8IKO-4" value="&lt;span style=&quot;color: rgb(56, 58, 66); font-family: monospace; font-size: 13.6px; text-align: left; white-space: pre; background-color: rgb(243, 243, 243);&quot;&gt;Технический директор&lt;/span&gt;" style="rounded=0;whiteSpace=wrap;html=1;" vertex="1" parent="WIyWlLk6GJQsqaUBKTNV-1">
          <mxGeometry x="-180" y="160" width="200" height="70" as="geometry" />
        </mxCell>
        <mxCell id="ArthtXB-nmdLfyEw8IKO-5" value="&lt;span style=&quot;color: rgb(56, 58, 66); font-family: monospace; font-size: 13.6px; text-align: left; white-space: pre; background-color: rgb(243, 243, 243);&quot;&gt;Коммерческий директор&lt;/span&gt;" style="rounded=0;whiteSpace=wrap;html=1;" vertex="1" parent="WIyWlLk6GJQsqaUBKTNV-1">
          <mxGeometry x="50" y="160" width="200" height="70" as="geometry" />
        </mxCell>
        <mxCell id="ArthtXB-nmdLfyEw8IKO-6" value="&lt;span style=&quot;color: rgb(56, 58, 66); font-family: monospace; font-size: 13.6px; text-align: left; white-space: pre; background-color: rgb(243, 243, 243);&quot;&gt;Директор по качеству&lt;/span&gt;" style="rounded=0;whiteSpace=wrap;html=1;" vertex="1" parent="WIyWlLk6GJQsqaUBKTNV-1">
          <mxGeometry x="510" y="160" width="200" height="70" as="geometry" />
        </mxCell>
        <mxCell id="ArthtXB-nmdLfyEw8IKO-9" style="edgeStyle=orthogonalEdgeStyle;rounded=0;orthogonalLoop=1;jettySize=auto;html=1;exitX=0.5;exitY=1;exitDx=0;exitDy=0;entryX=0.428;entryY=0.079;entryDx=0;entryDy=0;entryPerimeter=0;" edge="1" parent="WIyWlLk6GJQsqaUBKTNV-1" source="ArthtXB-nmdLfyEw8IKO-1" target="ArthtXB-nmdLfyEw8IKO-5">
          <mxGeometry relative="1" as="geometry" />
        </mxCell>
        <mxCell id="ArthtXB-nmdLfyEw8IKO-26" style="edgeStyle=orthogonalEdgeStyle;rounded=0;orthogonalLoop=1;jettySize=auto;html=1;entryX=0;entryY=0.5;entryDx=0;entryDy=0;exitX=0;exitY=0.5;exitDx=0;exitDy=0;" edge="1" parent="WIyWlLk6GJQsqaUBKTNV-1" source="ArthtXB-nmdLfyEw8IKO-13" target="ArthtXB-nmdLfyEw8IKO-23">
          <mxGeometry relative="1" as="geometry" />
        </mxCell>
        <mxCell id="ArthtXB-nmdLfyEw8IKO-27" style="edgeStyle=orthogonalEdgeStyle;rounded=0;orthogonalLoop=1;jettySize=auto;html=1;exitX=0;exitY=0.5;exitDx=0;exitDy=0;entryX=0;entryY=0.5;entryDx=0;entryDy=0;" edge="1" parent="WIyWlLk6GJQsqaUBKTNV-1" source="ArthtXB-nmdLfyEw8IKO-13" target="ArthtXB-nmdLfyEw8IKO-22">
          <mxGeometry relative="1" as="geometry" />
        </mxCell>
        <mxCell id="ArthtXB-nmdLfyEw8IKO-28" style="edgeStyle=orthogonalEdgeStyle;rounded=0;orthogonalLoop=1;jettySize=auto;html=1;exitX=0;exitY=0.5;exitDx=0;exitDy=0;entryX=0;entryY=0.5;entryDx=0;entryDy=0;" edge="1" parent="WIyWlLk6GJQsqaUBKTNV-1" source="ArthtXB-nmdLfyEw8IKO-13" target="ArthtXB-nmdLfyEw8IKO-21">
          <mxGeometry relative="1" as="geometry" />
        </mxCell>
        <mxCell id="ArthtXB-nmdLfyEw8IKO-29" style="edgeStyle=orthogonalEdgeStyle;rounded=0;orthogonalLoop=1;jettySize=auto;html=1;exitX=0;exitY=0.5;exitDx=0;exitDy=0;entryX=0;entryY=0.5;entryDx=0;entryDy=0;" edge="1" parent="WIyWlLk6GJQsqaUBKTNV-1" source="ArthtXB-nmdLfyEw8IKO-13" target="ArthtXB-nmdLfyEw8IKO-20">
          <mxGeometry relative="1" as="geometry" />
        </mxCell>
        <mxCell id="ArthtXB-nmdLfyEw8IKO-30" style="edgeStyle=orthogonalEdgeStyle;rounded=0;orthogonalLoop=1;jettySize=auto;html=1;exitX=0;exitY=0.5;exitDx=0;exitDy=0;entryX=0;entryY=0.5;entryDx=0;entryDy=0;" edge="1" parent="WIyWlLk6GJQsqaUBKTNV-1" source="ArthtXB-nmdLfyEw8IKO-13" target="ArthtXB-nmdLfyEw8IKO-24">
          <mxGeometry relative="1" as="geometry" />
        </mxCell>
        <mxCell id="ArthtXB-nmdLfyEw8IKO-13" value="&lt;span style=&quot;color: rgb(56, 58, 66); font-family: monospace; font-size: 13.6px; text-align: left; white-space: pre; background-color: rgb(243, 243, 243);&quot;&gt;Производственный блок&lt;/span&gt;" style="rounded=0;whiteSpace=wrap;html=1;" vertex="1" parent="WIyWlLk6GJQsqaUBKTNV-1">
          <mxGeometry x="-610" y="280" width="200" height="70" as="geometry" />
        </mxCell>
        <mxCell id="ArthtXB-nmdLfyEw8IKO-32" style="edgeStyle=orthogonalEdgeStyle;rounded=0;orthogonalLoop=1;jettySize=auto;html=1;exitX=0.5;exitY=1;exitDx=0;exitDy=0;entryX=0;entryY=0.5;entryDx=0;entryDy=0;" edge="1" parent="WIyWlLk6GJQsqaUBKTNV-1" source="ArthtXB-nmdLfyEw8IKO-14" target="ArthtXB-nmdLfyEw8IKO-19">
          <mxGeometry relative="1" as="geometry" />
        </mxCell>
        <mxCell id="ArthtXB-nmdLfyEw8IKO-33" style="edgeStyle=orthogonalEdgeStyle;rounded=0;orthogonalLoop=1;jettySize=auto;html=1;exitX=0.5;exitY=1;exitDx=0;exitDy=0;entryX=0;entryY=0.5;entryDx=0;entryDy=0;" edge="1" parent="WIyWlLk6GJQsqaUBKTNV-1" source="ArthtXB-nmdLfyEw8IKO-14" target="ArthtXB-nmdLfyEw8IKO-31">
          <mxGeometry relative="1" as="geometry">
            <Array as="points">
              <mxPoint x="-290" y="370" />
              <mxPoint x="-400" y="370" />
              <mxPoint x="-400" y="495" />
            </Array>
          </mxGeometry>
        </mxCell>
        <mxCell id="ArthtXB-nmdLfyEw8IKO-14" value="&lt;span style=&quot;color: rgb(56, 58, 66); font-family: monospace; font-size: 13.6px; text-align: left; white-space: pre; background-color: rgb(243, 243, 243);&quot;&gt;Технический отдел&lt;/span&gt;" style="rounded=0;whiteSpace=wrap;html=1;" vertex="1" parent="WIyWlLk6GJQsqaUBKTNV-1">
          <mxGeometry x="-390" y="280" width="200" height="70" as="geometry" />
        </mxCell>
        <mxCell id="ArthtXB-nmdLfyEw8IKO-15" value="&lt;span style=&quot;color: rgb(56, 58, 66); font-family: monospace; font-size: 13.6px; text-align: left; white-space: pre; background-color: rgb(243, 243, 243);&quot;&gt;Отдел логистики&lt;/span&gt;" style="rounded=0;whiteSpace=wrap;html=1;" vertex="1" parent="WIyWlLk6GJQsqaUBKTNV-1">
          <mxGeometry x="-180" y="280" width="200" height="70" as="geometry" />
        </mxCell>
        <mxCell id="ArthtXB-nmdLfyEw8IKO-16" style="edgeStyle=orthogonalEdgeStyle;rounded=0;orthogonalLoop=1;jettySize=auto;html=1;exitX=0.5;exitY=1;exitDx=0;exitDy=0;entryX=0.458;entryY=0.014;entryDx=0;entryDy=0;entryPerimeter=0;" edge="1" parent="WIyWlLk6GJQsqaUBKTNV-1" source="ArthtXB-nmdLfyEw8IKO-4" target="ArthtXB-nmdLfyEw8IKO-13">
          <mxGeometry relative="1" as="geometry" />
        </mxCell>
        <mxCell id="ArthtXB-nmdLfyEw8IKO-19" value="&lt;span style=&quot;color: rgb(56, 58, 66); font-family: monospace; font-size: 13.6px; text-align: left; white-space: pre; background-color: rgb(243, 243, 243);&quot;&gt;Инженеры оборудования&lt;/span&gt;" style="rounded=0;whiteSpace=wrap;html=1;" vertex="1" parent="WIyWlLk6GJQsqaUBKTNV-1">
          <mxGeometry x="-380" y="380" width="200" height="70" as="geometry" />
        </mxCell>
        <mxCell id="ArthtXB-nmdLfyEw8IKO-20" value="&lt;span style=&quot;color: rgb(56, 58, 66); font-family: monospace; font-size: 13.6px; text-align: left; white-space: pre; background-color: rgb(243, 243, 243);&quot;&gt;Цех выдержки&lt;/span&gt;" style="rounded=0;whiteSpace=wrap;html=1;" vertex="1" parent="WIyWlLk6GJQsqaUBKTNV-1">
          <mxGeometry x="-610" y="600" width="200" height="70" as="geometry" />
        </mxCell>
        <mxCell id="ArthtXB-nmdLfyEw8IKO-21" value="&lt;span style=&quot;color: rgb(56, 58, 66); font-family: monospace; font-size: 13.6px; text-align: left; white-space: pre; background-color: rgb(243, 243, 243);&quot;&gt;Ферментационный цех&lt;/span&gt;" style="rounded=0;whiteSpace=wrap;html=1;" vertex="1" parent="WIyWlLk6GJQsqaUBKTNV-1">
          <mxGeometry x="-610" y="520" width="200" height="70" as="geometry" />
        </mxCell>
        <mxCell id="ArthtXB-nmdLfyEw8IKO-22" value="&lt;span style=&quot;color: rgb(56, 58, 66); font-family: monospace; font-size: 13.6px; text-align: left; white-space: pre; background-color: rgb(243, 243, 243);&quot;&gt;Перерабатывающий цех&lt;/span&gt;" style="rounded=0;whiteSpace=wrap;html=1;" vertex="1" parent="WIyWlLk6GJQsqaUBKTNV-1">
          <mxGeometry x="-610" y="440" width="200" height="70" as="geometry" />
        </mxCell>
        <mxCell id="ArthtXB-nmdLfyEw8IKO-23" value="&lt;span style=&quot;color: rgb(56, 58, 66); font-family: monospace; font-size: 13.6px; text-align: left; white-space: pre; background-color: rgb(243, 243, 243);&quot;&gt;Цех приёмки сырья&lt;/span&gt;" style="rounded=0;whiteSpace=wrap;html=1;" vertex="1" parent="WIyWlLk6GJQsqaUBKTNV-1">
          <mxGeometry x="-610" y="360" width="200" height="70" as="geometry" />
        </mxCell>
        <mxCell id="ArthtXB-nmdLfyEw8IKO-24" value="&lt;span style=&quot;color: rgb(56, 58, 66); font-family: monospace; font-size: 13.6px; text-align: left; white-space: pre; background-color: rgb(243, 243, 243);&quot;&gt;Цех розлива&lt;/span&gt;" style="rounded=0;whiteSpace=wrap;html=1;" vertex="1" parent="WIyWlLk6GJQsqaUBKTNV-1">
          <mxGeometry x="-610" y="680" width="200" height="70" as="geometry" />
        </mxCell>
        <mxCell id="ArthtXB-nmdLfyEw8IKO-25" value="&lt;span style=&quot;color: rgb(56, 58, 66); font-family: monospace; font-size: 13.6px; text-align: left; white-space: pre; background-color: rgb(243, 243, 243);&quot;&gt;Лаборатория&lt;/span&gt;" style="rounded=0;whiteSpace=wrap;html=1;" vertex="1" parent="WIyWlLk6GJQsqaUBKTNV-1">
          <mxGeometry x="-610" y="760" width="200" height="70" as="geometry" />
        </mxCell>
        <mxCell id="ArthtXB-nmdLfyEw8IKO-31" value="&lt;span style=&quot;color: rgb(56, 58, 66); font-family: monospace; font-size: 13.6px; text-align: left; white-space: pre; background-color: rgb(243, 243, 243);&quot;&gt;Энергетики&lt;/span&gt;" style="rounded=0;whiteSpace=wrap;html=1;" vertex="1" parent="WIyWlLk6GJQsqaUBKTNV-1">
          <mxGeometry x="-380" y="460" width="200" height="70" as="geometry" />
        </mxCell>
      </root>
    </mxGraphModel>
  </diagram>
</mxfile>
